<svg id="Layer_1" data-name="Layer 1" xmlns="http://www.w3.org/2000/svg" viewBox="0 0 644 164.28"><defs><style>.cls-1{fill:#fff;}</style></defs><title>AARP-RP</title><path class="cls-1" d="M454.11,93.48c0-11.58-6.14-19.9-17.87-19.9h-7.85V113.3h7.85c11,0,17.87-7.44,17.87-19.82m-113.06,0c0-10.56-5.33-19.9-20.07-19.9H315.3V113.3H321c13.27,0,20.07-7.53,20.07-19.82M221.41,117.13l-11.86-31.7-12.07,31.7a118.1,118.1,0,0,1,12.07-.83,102,102,0,0,1,11.86.83m-96.15.67L113.38,85l-11.64,31.39c2-.08,4.07-0.12,6.35-0.12a94,94,0,0,1,17.17,1.5M493.89,93.48c0,22.77-18,37.43-47.66,37.43H428.39v31.57H347.82L315.3,119.61v42.87H237.57L229,138.95a113.67,113.67,0,0,0-19.48-1.74,124.53,124.53,0,0,0-19.77,1.69L181,162.47H141.39l-6.46-17.9a78.75,78.75,0,0,1,20.86,8.59l1.65-4.06c-6-3.55-22.71-12-46.7-12-18.57,0-30.37,4.53-49.67,4.53A99.67,99.67,0,0,1,7,125.62l8.33-20.35c2.15,1.41,23,14.87,47,14.87a107.68,107.68,0,0,0,10.82-.54L99.15,56H142.4l25.75,66.75L195.4,56h43.31l37.89,98.23V56h51.78c35.21,0,52.45,16.15,52.45,37.44S364.07,123,359.41,125.12l30.33,33V56h56.5c31.25,0,47.66,15.82,47.66,37.44m-402,48.9,0.27,0L84.7,162.47H55.16l7.19-17.26h0.27a163.88,163.88,0,0,0,29.28-2.89Z" transform="translate(-7 -56.04)"/><path class="cls-1" d="M502.78,66.43h1.39c1.58,0,2.92-.58,2.92-2.06,0-1.05-.77-2.11-2.92-2.11a10.15,10.15,0,0,0-1.39.09v4.07Zm0,6.66h-1.92v-12a21.32,21.32,0,0,1,3.4-.28,6.34,6.34,0,0,1,3.74.91,2.89,2.89,0,0,1,1.1,2.49,3,3,0,0,1-2.35,2.92v0.1c1.05,0.19,1.77,1.14,2,2.92a10,10,0,0,0,.77,3h-2a9.12,9.12,0,0,1-.81-3.07,2.25,2.25,0,0,0-2.59-2.11h-1.34v5.17Zm2-15.38A9.14,9.14,0,0,0,504.85,76c4.78,0,8.62-4,8.62-9.11a8.86,8.86,0,0,0-8.62-9.15H504.8ZM504.85,56a10.72,10.72,0,1,1-.05,0h0.05Z" transform="translate(-7 -56.04)"/><path class="cls-1" d="M276.48,184.85h12.27c8.92,0,11.18,5.37,11.18,9.75a9.35,9.35,0,0,1-8.57,9.21l9.9,15.91h-5.91l-8.87-15.37h-5.27v15.37h-4.73V184.85Zm4.73,15.37h6.21c3.74,0,7.49-.89,7.49-5.62s-3.74-5.62-7.49-5.62h-6.21v11.23Z" transform="translate(-7 -56.04)"/><path class="cls-1" d="M310.13,209.68c0,4.09,3.79,6.8,7.88,6.8,2.71,0,4.68-1.38,6.41-3.5l3.35,2.56c-2.46,3.2-5.86,4.78-10.35,4.78-7.39,0-12-5.32-12-12.27s5.08-12.27,12.07-12.27c8.23,0,11.38,6.31,11.38,12.32v1.58H310.13Zm14-3.55c-0.1-3.89-2.27-6.8-6.75-6.8a7.2,7.2,0,0,0-7.24,6.8h14Z" transform="translate(-7 -56.04)"/><path class="cls-1" d="M334.52,199.23a13.78,13.78,0,0,1,9.26-3.45c6.9,0,9.75,3.74,9.75,7.78v11.92a36,36,0,0,0,.2,4.24h-3.94q-0.15-1.77-.15-3.55h-0.1c-2,3-4.63,4.14-8.18,4.14-4.33,0-8.08-2.46-8.08-7,0-6,5.76-8.08,12.86-8.08h3.25v-1c0-2.41-1.77-4.93-5.57-4.93-3.4,0-5,1.43-6.65,2.66ZM347,208.49c-4.19,0-9.31.74-9.31,4.48,0,2.66,2,3.79,5,3.79,4.93,0,6.65-3.64,6.65-6.8v-1.48H347Z" transform="translate(-7 -56.04)"/><rect class="cls-1" x="354.33" y="126.45" width="4.43" height="37.24"/><path class="cls-1" d="M390.1,184.85h12.27c8.92,0,11.18,5.37,11.18,9.75s-2.27,9.75-11.18,9.75h-7.54v15.37H390.1V184.85Zm4.73,15.37H401c3.74,0,7.49-.89,7.49-5.62S404.78,189,401,189h-6.21v11.23Z" transform="translate(-7 -56.04)"/><path class="cls-1" d="M428.34,195.78a12.27,12.27,0,1,1-12.41,12.27,12.27,12.27,0,0,1,12.41-12.27m0,20.4c4.73,0,7.69-3.4,7.69-8.13s-3-8.13-7.69-8.13-7.69,3.4-7.69,8.13,3,8.13,7.69,8.13" transform="translate(-7 -56.04)"/><path class="cls-1" d="M459.63,202.24a5.93,5.93,0,0,0-4.78-2.31c-2.07,0-3.89.94-3.89,2.61,0,2.81,4,3.2,6,3.65,3.84,0.94,6.8,2.41,6.8,6.8,0,5.27-4.83,7.34-9.46,7.34-3.84,0-6.7-1-9-4.14l3.35-2.76a7.75,7.75,0,0,0,5.66,2.76c2.27,0,4.73-.93,4.73-3,0-2.66-3.7-3.15-5.62-3.6-3.79-.94-7.14-2.17-7.14-6.65,0-4.88,4.48-7.19,8.87-7.19,3.1,0,6.31,1.08,8,3.84Z" transform="translate(-7 -56.04)"/><path class="cls-1" d="M482.49,202.24a5.93,5.93,0,0,0-4.78-2.31c-2.07,0-3.89.94-3.89,2.61,0,2.81,4,3.2,6,3.65,3.84,0.94,6.8,2.41,6.8,6.8,0,5.27-4.83,7.34-9.46,7.34-3.84,0-6.7-1-9-4.14l3.35-2.76a7.75,7.75,0,0,0,5.66,2.76c2.27,0,4.73-.93,4.73-3,0-2.66-3.7-3.15-5.62-3.6-3.79-.94-7.14-2.17-7.14-6.65,0-4.88,4.48-7.19,8.87-7.19,3.1,0,6.31,1.08,8,3.84Z" transform="translate(-7 -56.04)"/><path class="cls-1" d="M495.4,184.75a3.25,3.25,0,1,1-3.25,3.25,3.28,3.28,0,0,1,3.25-3.25m-2.22,11.63h4.44v23.35h-4.44V196.37Z" transform="translate(-7 -56.04)"/><path class="cls-1" d="M505.65,182.48h4.43v17.24h0.1a9.77,9.77,0,0,1,8.13-3.94c7.19,0,11.87,5.27,11.87,12.27s-4.63,12.27-11.87,12.27a10,10,0,0,1-8.13-3.94h-0.1v3.35h-4.43V182.48Zm19.8,25.57c0-4.73-3-8.13-7.68-8.13s-7.69,3.4-7.69,8.13,3,8.13,7.69,8.13,7.68-3.4,7.68-8.13" transform="translate(-7 -56.04)"/><path class="cls-1" d="M538.07,184.75a3.25,3.25,0,1,1-3.25,3.25,3.28,3.28,0,0,1,3.25-3.25m-2.22,11.63h4.43v23.35h-4.43V196.37Z" transform="translate(-7 -56.04)"/><rect class="cls-1" x="541.17" y="126.45" width="4.43" height="37.24"/><path class="cls-1" d="M562.75,184.75A3.25,3.25,0,1,1,559.5,188a3.28,3.28,0,0,1,3.25-3.25m-2.22,11.63H565v23.35h-4.43V196.37Z" transform="translate(-7 -56.04)"/><path class="cls-1" d="M586.9,200.22h-6.36v10.59c0,2.61,0,5.37,3.35,5.37a6.29,6.29,0,0,0,3.15-.69v4a10.09,10.09,0,0,1-4,.79c-6.85,0-6.95-4.19-6.95-7.93V200.22H571v-3.84h5.12v-6.55h4.44v6.55h6.36v3.84Z" transform="translate(-7 -56.04)"/><path class="cls-1" d="M595.67,184.75a3.25,3.25,0,1,1-3.25,3.25,3.28,3.28,0,0,1,3.25-3.25m-2.22,11.63h4.43v23.35h-4.43V196.37Z" transform="translate(-7 -56.04)"/><path class="cls-1" d="M609.51,209.68c0,4.09,3.79,6.8,7.88,6.8,2.71,0,4.68-1.38,6.41-3.5l3.35,2.56c-2.46,3.2-5.86,4.78-10.35,4.78-7.39,0-12-5.32-12-12.27s5.08-12.27,12.07-12.27c8.23,0,11.38,6.31,11.38,12.32v1.58H609.51Zm14-3.55c-0.1-3.89-2.27-6.8-6.75-6.8a7.2,7.2,0,0,0-7.24,6.8h14Z" transform="translate(-7 -56.04)"/><path class="cls-1" d="M646.91,202.24a5.93,5.93,0,0,0-4.78-2.31c-2.07,0-3.89.94-3.89,2.61,0,2.81,4,3.2,6,3.65,3.84,0.94,6.8,2.41,6.8,6.8,0,5.27-4.83,7.34-9.46,7.34-3.84,0-6.7-1-9-4.14l3.35-2.76a7.75,7.75,0,0,0,5.66,2.76c2.27,0,4.73-.93,4.73-3,0-2.66-3.7-3.15-5.62-3.6-3.79-.94-7.14-2.17-7.14-6.65,0-4.88,4.48-7.19,8.87-7.19,3.1,0,6.31,1.08,8,3.84Z" transform="translate(-7 -56.04)"/></svg>