<svg id="Layer_1" data-name="Layer 1" xmlns="http://www.w3.org/2000/svg" viewBox="0 0 644 164.28"><defs><style>.cls-1{fill:#fff;}</style></defs><title>AARP-RP-White</title><path class="cls-1" d="M449.61,37.44c0-11.58-6.14-19.9-17.87-19.9h-7.85V57.26h7.85c11,0,17.87-7.44,17.87-19.82m-113.06,0c0-10.56-5.33-19.9-20.07-19.9H310.8V57.26h5.69c13.27,0,20.07-7.53,20.07-19.82M216.91,61.1L205.06,29.4,193,61.1a118.1,118.1,0,0,1,12.07-.83,102,102,0,0,1,11.86.83m-96.15.67L108.88,29,97.24,60.38c2-.08,4.07-0.12,6.35-0.12a94,94,0,0,1,17.17,1.5M489.39,37.44c0,22.77-18,37.43-47.66,37.43H423.89v31.57H343.32L310.8,63.57v42.87H233.07l-8.54-23.53a113.67,113.67,0,0,0-19.48-1.74,124.53,124.53,0,0,0-19.77,1.69l-8.76,23.58H136.89l-6.46-17.9a78.75,78.75,0,0,1,20.86,8.59l1.65-4.06c-6-3.55-22.71-12-46.7-12-18.57,0-30.37,4.53-49.67,4.53a99.67,99.67,0,0,1-54.07-16l8.33-20.35c2.15,1.41,23,14.87,47,14.87a107.68,107.68,0,0,0,10.82-.54L94.65,0H137.9l25.75,66.75L190.9,0h43.31L272.1,98.23V0h51.78c35.21,0,52.45,16.15,52.45,37.44S359.57,67,354.91,69.08l30.33,33V0h56.5C473,0,489.39,15.82,489.39,37.44m-402,48.9,0.27,0L80.2,106.44H50.66l7.19-17.26h0.27A163.88,163.88,0,0,0,87.4,86.29Z" transform="translate(-2.5 0)"/><path class="cls-1" d="M498.28,10.4h1.39c1.58,0,2.92-.58,2.92-2.06,0-1.05-.77-2.11-2.92-2.11a10.15,10.15,0,0,0-1.39.09V10.4Zm0,6.66h-1.92V5a21.32,21.32,0,0,1,3.4-.28,6.34,6.34,0,0,1,3.74.91,2.89,2.89,0,0,1,1.1,2.49,3,3,0,0,1-2.35,2.92v0.1c1.05,0.19,1.77,1.14,2,2.92a10,10,0,0,0,.77,3h-2a9.12,9.12,0,0,1-.81-3.07,2.25,2.25,0,0,0-2.59-2.11h-1.34v5.17Zm2-15.38a8.89,8.89,0,0,0-8.63,9.1,8.88,8.88,0,0,0,8.68,9.15c4.78,0,8.62-4,8.62-9.11a8.86,8.86,0,0,0-8.62-9.15H500.3ZM500.35,0a10.64,10.64,0,0,1,10.58,10.78,10.66,10.66,0,1,1-21.33,0A10.72,10.72,0,0,1,500.3,0h0.05Z" transform="translate(-2.5 0)"/><path class="cls-1" d="M272,128.81h12.27c8.92,0,11.18,5.37,11.18,9.75a9.35,9.35,0,0,1-8.57,9.21l9.9,15.91h-5.91L282,148.32h-5.27v15.37H272V128.81Zm4.73,15.37h6.21c3.74,0,7.49-.89,7.49-5.62s-3.74-5.62-7.49-5.62h-6.21v11.23Z" transform="translate(-2.5 0)"/><path class="cls-1" d="M305.63,153.64c0,4.09,3.79,6.8,7.88,6.8,2.71,0,4.68-1.38,6.41-3.5l3.35,2.56c-2.46,3.2-5.86,4.78-10.35,4.78-7.39,0-12-5.32-12-12.27S306,139.75,313,139.75c8.23,0,11.38,6.31,11.38,12.32v1.58H305.63Zm14-3.55c-0.1-3.89-2.27-6.8-6.75-6.8a7.2,7.2,0,0,0-7.24,6.8h14Z" transform="translate(-2.5 0)"/><path class="cls-1" d="M330,143.2a13.78,13.78,0,0,1,9.26-3.45c6.9,0,9.75,3.74,9.75,7.78v11.92a36,36,0,0,0,.2,4.24h-3.94q-0.15-1.77-.15-3.55H345c-2,3-4.63,4.14-8.18,4.14-4.33,0-8.08-2.46-8.08-7,0-6,5.76-8.08,12.86-8.08h3.25v-1c0-2.41-1.77-4.93-5.57-4.93-3.4,0-5,1.43-6.65,2.66Zm12.52,9.26c-4.19,0-9.31.74-9.31,4.48,0,2.66,2,3.79,5,3.79,4.93,0,6.65-3.64,6.65-6.8v-1.48h-2.36Z" transform="translate(-2.5 0)"/><rect class="cls-1" x="354.33" y="126.45" width="4.43" height="37.24"/><path class="cls-1" d="M385.6,128.81h12.27c8.92,0,11.18,5.37,11.18,9.75s-2.27,9.75-11.18,9.75h-7.54v15.37H385.6V128.81Zm4.73,15.37h6.21c3.74,0,7.49-.89,7.49-5.62s-3.74-5.62-7.49-5.62h-6.21v11.23Z" transform="translate(-2.5 0)"/><path class="cls-1" d="M423.84,139.75A12.27,12.27,0,1,1,411.42,152a12.27,12.27,0,0,1,12.41-12.27m0,20.4c4.73,0,7.69-3.4,7.69-8.13s-3-8.13-7.69-8.13-7.69,3.4-7.69,8.13,3,8.13,7.69,8.13" transform="translate(-2.5 0)"/><path class="cls-1" d="M455.13,146.2a5.93,5.93,0,0,0-4.78-2.31c-2.07,0-3.89.94-3.89,2.61,0,2.81,4,3.2,6,3.65,3.84,0.94,6.8,2.41,6.8,6.8,0,5.27-4.83,7.34-9.46,7.34-3.84,0-6.7-1-9-4.14l3.35-2.76a7.75,7.75,0,0,0,5.66,2.76c2.27,0,4.73-.93,4.73-3,0-2.66-3.7-3.15-5.62-3.6-3.79-.94-7.14-2.17-7.14-6.65,0-4.88,4.48-7.19,8.87-7.19,3.1,0,6.31,1.08,8,3.84Z" transform="translate(-2.5 0)"/><path class="cls-1" d="M478,146.2a5.93,5.93,0,0,0-4.78-2.31c-2.07,0-3.89.94-3.89,2.61,0,2.81,4,3.2,6,3.65,3.84,0.94,6.8,2.41,6.8,6.8,0,5.27-4.83,7.34-9.46,7.34-3.84,0-6.7-1-9-4.14l3.35-2.76a7.75,7.75,0,0,0,5.66,2.76c2.27,0,4.73-.93,4.73-3,0-2.66-3.7-3.15-5.62-3.6-3.79-.94-7.14-2.17-7.14-6.65,0-4.88,4.48-7.19,8.87-7.19,3.1,0,6.31,1.08,8,3.84Z" transform="translate(-2.5 0)"/><path class="cls-1" d="M490.9,128.71a3.25,3.25,0,1,1-3.25,3.25,3.28,3.28,0,0,1,3.25-3.25m-2.22,11.63h4.44v23.35h-4.44V140.34Z" transform="translate(-2.5 0)"/><path class="cls-1" d="M501.15,126.45h4.43v17.24h0.1a9.77,9.77,0,0,1,8.13-3.94c7.19,0,11.87,5.27,11.87,12.27s-4.63,12.27-11.87,12.27a10,10,0,0,1-8.13-3.94h-0.1v3.35h-4.43V126.45ZM521,152c0-4.73-3-8.13-7.68-8.13s-7.69,3.4-7.69,8.13,3,8.13,7.69,8.13S521,156.74,521,152" transform="translate(-2.5 0)"/><path class="cls-1" d="M533.57,128.71a3.25,3.25,0,1,1-3.25,3.25,3.28,3.28,0,0,1,3.25-3.25m-2.22,11.63h4.43v23.35h-4.43V140.34Z" transform="translate(-2.5 0)"/><rect class="cls-1" x="541.17" y="126.45" width="4.43" height="37.24"/><path class="cls-1" d="M558.25,128.71A3.25,3.25,0,1,1,555,132a3.28,3.28,0,0,1,3.25-3.25M556,140.34h4.43v23.35H556V140.34Z" transform="translate(-2.5 0)"/><path class="cls-1" d="M582.4,144.18H576v10.59c0,2.61,0,5.37,3.35,5.37a6.29,6.29,0,0,0,3.15-.69v4a10.09,10.09,0,0,1-4,.79c-6.85,0-6.95-4.19-6.95-7.93V144.18h-5.12v-3.84h5.12v-6.55H576v6.55h6.36v3.84Z" transform="translate(-2.5 0)"/><path class="cls-1" d="M591.17,128.71a3.25,3.25,0,1,1-3.25,3.25,3.28,3.28,0,0,1,3.25-3.25M589,140.34h4.43v23.35H589V140.34Z" transform="translate(-2.5 0)"/><path class="cls-1" d="M605,153.64c0,4.09,3.79,6.8,7.88,6.8,2.71,0,4.68-1.38,6.41-3.5l3.35,2.56c-2.46,3.2-5.86,4.78-10.35,4.78-7.39,0-12-5.32-12-12.27s5.08-12.27,12.07-12.27c8.23,0,11.38,6.31,11.38,12.32v1.58H605Zm14-3.55c-0.1-3.89-2.27-6.8-6.75-6.8a7.2,7.2,0,0,0-7.24,6.8h14Z" transform="translate(-2.5 0)"/><path class="cls-1" d="M642.41,146.2a5.93,5.93,0,0,0-4.78-2.31c-2.07,0-3.89.94-3.89,2.61,0,2.81,4,3.2,6,3.65,3.84,0.94,6.8,2.41,6.8,6.8,0,5.27-4.83,7.34-9.46,7.34-3.84,0-6.7-1-9-4.14l3.35-2.76a7.75,7.75,0,0,0,5.66,2.76c2.27,0,4.73-.93,4.73-3,0-2.66-3.7-3.15-5.62-3.6-3.79-.94-7.14-2.17-7.14-6.65,0-4.88,4.48-7.19,8.87-7.19,3.1,0,6.31,1.08,8,3.84Z" transform="translate(-2.5 0)"/></svg>